PathFileType	4	(X/Y/Z)	0_coords_data.trc
DataRate	CameraRate	NumFrames	NumMarkers	Units	OrigDataRate	OrigDataStartFrame	OrigNumFrames
30.0	30.0	8	21	m	30.0	52	72
Frame#	Time	THUMB_TIP	THUMB_IP	THUMB_MCP	THUMB_CMC	INDEX_TIP	INDEX_DIP	INDEX_PIP	INDEX_MCP	MIDDLE_TIP	MIDDLE_DIP	MIDDLE_PIP	MIDDLE_MCP	RING_TIP	RING_DIP	RING_PIP	RING_MCP	PINKY_TIP	PINKY_DIP	PINKY_PIP	PINKY_MCP	WRIST
X1	Y1	Z1	X2	Y2	Z2	X3	Y3	Z3	X4	Y4	Z4	X5	Y5	Z5	X6	Y6	Z6	X7	Y7	Z7	X8	Y8	Z8	X9	Y9	Z9	X10	Y10	Z10	X11	Y11	Z11	X12	Y12	Z12	X13	Y13	Z13	X14	Y14	Z14	X15	Y15	Z15	X16	Y16	Z16	X17	Y17	Z17	X18	Y18	Z18	X19	Y19	Z19	X20	Y20	Z20	X21	Y21	Z21
51	1.7	0.04194269943237305	-0.06358319854736329	0.9740650024414063	0.023543699264526367	-0.04864199829101563	0.9906079711914062	-0.0008942390084266661	-0.04691289901733398	1.0148499755859375	-0.01515470027923584	-0.01838949966430664	1.0304599609375	0.019815000534057617	-0.04463240051269531	0.8905189819335938	0.006262869834899903	-0.0425635986328125	0.9109580078125	-0.007081079959869385	-0.03995159912109375	0.932864013671875	-0.02821969985961914	-0.033827499389648436	0.9688619995117187	0.037207801818847655	-0.01107040023803711	0.886218017578125	0.017922399520874023	-0.009251489639282226	0.9030670166015625	-0.005315289974212646	-0.007583580017089844	0.9248099975585937	-0.026768600463867188	-0.007917610168457032	0.9634180297851562	0.040388999938964845	0.02130109977722168	0.89164697265625	0.022285400390625	0.02137430000305176	0.9089119873046875	0.00039625999331474306	0.020274999618530274	0.929573974609375	-0.018003400802612306	0.013535799980163575	0.9672490234375	0.04046340179443359	0.04683449935913086	0.9230919799804688	0.02432460021972656	0.045942699432373044	0.9364810180664063	0.008104869842529297	0.04346049880981445	0.9505159912109375	-0.008924409866333008	0.03324200057983399	0.976968017578125	-0.04517599868774414	0.0073604297637939456	1.0520699462890626
52	1.7333333333333334	0.04376399993896484	-0.05909220123291015	0.9748259887695313	0.025217599868774414	-0.04556620025634766	0.9926229858398438	0.002273789882659912	-0.04469419860839844	1.0180599975585938	-0.01237399959564209	-0.016561399459838866	1.0340999755859375	0.015787400245666505	-0.04227259826660156	0.8926719970703125	0.003238379955291748	-0.04082889938354492	0.9140139770507812	-0.0090939302444458	-0.03884329986572266	0.9368330078125	-0.02822599983215332	-0.033804000854492186	0.9735850219726563	0.029989999771118166	-0.007359270095825195	0.8864580078125	0.011987400054931641	-0.006898580074310302	0.9050180053710938	-0.009715950012207031	-0.00666379976272583	0.9285650024414063	-0.02870330047607422	-0.00785851001739502	0.9680900268554687	0.030046100616455077	0.025730600357055666	0.8906339721679688	0.013560500144958496	0.024188800811767577	0.9100349731445313	-0.006008220195770264	0.021526399612426757	0.9327659912109375	-0.02109589958190918	0.013972700119018555	0.9711320190429688	0.030562400817871094	0.05122159957885742	0.9225289916992188	0.015684300422668458	0.04908110046386719	0.9374949951171875	0.000902875006198883	0.04533160018920898	0.952655029296875	-0.013013099670410156	0.03442480087280273	0.9802650146484375	-0.043855899810791014	0.006973569869995117	1.057550048828125
53	1.7666666666666666	0.045097099304199216	-0.055237899780273436	0.9756939697265625	0.026576799392700197	-0.04275949859619141	0.9943740234375	0.004552529811859131	-0.042753501892089846	1.0208599853515625	-0.010933099746704101	-0.015207799911499023	1.0374300537109375	0.013634300231933594	-0.0415443000793457	0.8954030151367187	0.0018230899572372432	-0.04033110046386719	0.9172009887695313	-0.009693889617919922	-0.03864849853515625	0.9400579833984375	-0.02821969985961914	-0.03390570068359375	0.9774650268554688	0.024249700546264647	-0.005894259929656982	0.8872369995117187	0.007678609848022461	-0.006308189868927002	0.9070670166015625	-0.012458000183105469	-0.006821139812469483	0.9316090087890625	-0.029652700424194336	-0.008182259559631347	0.9715999755859375	0.022080400466918945	0.027241300582885743	0.8905809936523438	0.007385540008544922	0.024975799560546876	0.9114089965820312	-0.010304699897766114	0.02154789924621582	0.935656982421875	-0.022934900283813477	0.013980799674987793	0.9744030151367188	0.023522499084472657	0.05304949951171875	0.9227940063476563	0.009845430374145508	0.05018280029296875	0.9387239990234375	-0.003592910051345825	0.0458406982421875	0.9547219848632813	-0.015271400451660156	0.034825000762939456	0.9829169921875	-0.042758098602294924	0.006922840118408203	1.0614300537109376
54	1.8	0.0458650016784668	-0.05217279815673828	0.97652099609375	0.02744490051269531	-0.04082040023803711	0.9964349975585938	0.0062773900032043455	-0.04182170104980469	1.0231400146484375	-0.009628279685974121	-0.014577300071716308	1.0400799560546874	0.011221400260925293	-0.04059519958496094	0.897155029296875	0.000188843995332717	-0.039631698608398436	0.91935400390625	-0.010623700141906738	-0.03818090057373047	0.9427340087890625	-0.02796380043029785	-0.03385260009765625	0.9804089965820313	0.019300600051879883	-0.003889240026473999	0.887427001953125	0.004078479766845703	-0.005026380062103271	0.90868701171875	-0.014433300018310547	-0.006279759883880616	0.9344879760742187	-0.03028190040588379	-0.008263999938964844	0.974572021484375	0.01632320022583008	0.02947909927368164	0.8913469848632812	0.003053639888763427	0.026343500137329102	0.913416015625	-0.013080400466918945	0.022128200531005858	0.938281982421875	-0.024002899169921876	0.014237099647521973	0.9773820190429687	0.01850699996948242	0.055155498504638675	0.92381201171875	0.00553111982345581	0.051475799560546875	0.94052197265625	-0.006858689785003662	0.0467150993347168	0.9571099853515626	-0.016673500061035157	0.03521939849853516	0.985635009765625	-0.04181570053100586	0.00657951021194458	1.0646800537109375
55	1.8333333333333333	0.04545529937744141	-0.05244580078125	0.9784869995117188	0.02729640007019043	-0.041399200439453124	0.9984240112304688	0.006274000167846679	-0.042072200775146486	1.0254200439453125	-0.009387909889221191	-0.014496800422668456	1.0420699462890626	0.009522370338439941	-0.04124729919433594	0.8990709838867188	-0.0011761200428009031	-0.04006399917602539	0.9215759887695313	-0.011546999931335448	-0.03847370147705078	0.9450029907226563	-0.028303800582885744	-0.03354830169677735	0.9829240112304688	0.01583150005340576	-0.003814219951629638	0.88789697265625	0.00197298002243042	-0.005078159809112549	0.91010302734375	-0.015273300170898438	-0.006354420185089111	0.9367329711914063	-0.030510799407958984	-0.008180049896240235	0.9769429931640625	0.012261300086975098	0.029884199142456054	0.8918519897460937	0.000489836007356643	0.026512399673461914	0.9147509765625	-0.014244999885559082	0.02210140037536621	0.9403140258789062	-0.02407150077819824	0.014255100250244141	0.9796010131835937	0.0157391996383667	0.05606679916381836	0.9247570190429687	0.003596669912338257	0.052014301300048825	0.94193798828125	-0.00809138011932373	0.04683409881591797	0.9591229858398438	-0.01688870048522949	0.035344001770019534	0.9875759887695312	-0.04126449966430664	0.006846330165863037	1.0668599853515626
56	1.8666666666666667	0.043578601837158205	-0.05473139953613281	0.979427001953125	0.026100500106811524	-0.04271749877929688	0.9993469848632812	0.00553357982635498	-0.042409698486328126	1.02675	-0.009570269584655762	-0.01454069995880127	1.0435	0.007735010147094727	-0.04112689971923828	0.9005780029296875	-0.002620069980621338	-0.03990599822998047	0.9230650024414062	-0.012701399803161621	-0.03829520034790039	0.9465689697265625	-0.02894619941711426	-0.03323609924316406	0.9843779907226563	0.012502900123596191	-0.003571059942245483	0.8882000122070313	-0.000361438989639282	-0.004936960220336914	0.9111649780273438	-0.01651140022277832	-0.006225349903106689	0.93825	-0.03125230026245117	-0.007906350135803222	0.97839501953125	0.00897202968597412	0.030291099548339844	0.8921259765625	-0.0017526600360870362	0.026760499954223634	0.91577001953125	-0.015375200271606446	0.02231399917602539	0.94172900390625	-0.024381399154663086	0.014408699989318848	0.98114697265625	0.013028599739074708	0.05708720016479492	0.9251649780273438	0.0018539899587631222	0.05256669998168945	0.9428870239257813	-0.008877690315246583	0.04713140106201172	0.9603720092773438	-0.01722089958190918	0.03546559906005859	0.9890819702148438	-0.04110609817504883	0.006964590072631836	1.068760009765625
57	1.9	0.04124909973144531	-0.055576301574707034	0.9786209716796875	0.024350400924682616	-0.04312269973754883	0.999041015625	0.004689239978790284	-0.04228760147094727	1.02677001953125	-0.009872639656066894	-0.014336899757385254	1.0437099609375	0.006532340049743652	-0.03955379867553711	0.9015130004882812	-0.00401455020904541	-0.0386083984375	0.9240130004882813	-0.014048100471496582	-0.03719680023193359	0.9475640258789062	-0.03073080062866211	-0.032732898712158204	0.985447998046875	0.009918689727783203	-0.002693470001220703	0.8887570190429688	-0.002410680055618286	-0.004156390190124512	0.9120369873046875	-0.01797610092163086	-0.005568860054016113	0.9392890014648437	-0.03297489929199219	-0.007290900230407715	0.9796530151367188	0.005839179992675781	0.03127860069274902	0.8927329711914063	-0.004533949851989746	0.02764809989929199	0.9164990234375	-0.01757749938964844	0.023010299682617186	0.942614013671875	-0.026005699157714845	0.014988400459289552	0.9821669921875	0.009825610160827636	0.05825170135498047	0.9256840209960937	-0.0009463059902191161	0.053675701141357425	0.943583984375	-0.011232399940490722	0.04796900177001953	0.9612310180664062	-0.018753400802612306	0.03618949890136719	0.9899559936523438	-0.041214099884033205	0.007192019939422607	1.0698900146484376
58	1.9333333333333333	0.03929119873046875	-0.055484500885009766	0.9783720092773438	0.02280419921875	-0.043214500427246096	0.9992459716796875	0.00338319993019104	-0.04235309982299805	1.0270400390625	-0.010740099906921386	-0.014145999908447266	1.04418994140625	0.005053359985351562	-0.0380177001953125	0.9020670166015625	-0.0053907098770141606	-0.03735129928588867	0.9245910034179687	-0.015304499626159668	-0.036063098907470705	0.9480750122070313	-0.0319871997833252	-0.03189130020141601	0.9859559936523438	0.008474349975585938	-0.001510179996490478	0.8891309814453126	-0.0035562999248504638	-0.0031148700714111327	0.9127739868164062	-0.018886600494384766	-0.004648149967193604	0.9402050170898437	-0.03404270172119141	-0.006451419830322266	0.9803809814453125	0.004633959770202637	0.03216709899902344	0.8933319702148438	-0.005572740077972412	0.028617099761962892	0.9171619873046875	-0.01856089973449707	0.02398590087890625	0.943447998046875	-0.027000799179077148	0.01582960033416748	0.98293798828125	0.008839389801025391	0.059402400970458985	0.9264920043945313	-0.001948310017585754	0.054749500274658205	0.9444819946289063	-0.0121875	0.049021701812744144	0.9621640014648437	-0.01956559944152832	0.036893001556396486	0.99077099609375	-0.041523998260498046	0.00751117992401123	1.0704599609375
